<?xml version="1.0" encoding="utf-8"?>
<!-- Generator: Adobe Illustrator 27.8.1, SVG Export Plug-In . SVG Version: 6.00 Build 0)  -->
<svg version="1.1" id="Layer_1" xmlns="http://www.w3.org/2000/svg" xmlns:xlink="http://www.w3.org/1999/xlink" x="0px" y="0px"
	 viewBox="0 0 758.7 328.9" style="enable-background:new 0 0 758.7 328.9;" xml:space="preserve">
<style type="text/css">
	.st0{fill:#CD0E44;}
	.st1{fill:#FFFFFF;}
</style>
<g>
	<path class="st0" d="M328.9,19.5v289.8c0,10.8-8.7,19.5-19.5,19.5H19.5C8.7,328.9,0,320.1,0,309.3L0,19.5C0,8.7,8.7,0,19.5,0
		l289.8,0C320.1,0,328.9,8.7,328.9,19.5z"/>
	<path class="st1" d="M287.5,126.4C281.3,89,261.9,56,232.7,32.3l-28.6,40.2c18.5,15.9,30.8,37.6,34.9,62
		c4.6,27.6-1.8,55.3-18.1,78.1c-12.2,17.1-30.4,28.5-51.2,32c-20.8,3.5-41.7-1.4-58.8-13.6c-12.6-9-21-22.4-23.6-37.8
		c-2.6-15.3,1-30.7,10-43.4c6.5-9,16.1-15,27-16.9c4.4-0.7,8.8-0.8,13-0.1c-5.6,3.3-10.5,8-14,13.9c-11.3,18.9-5.2,43.4,13.7,54.7
		c18.9,11.3,43.4,5.2,54.7-13.7c11.3-18.9,5.2-43.4-13.7-54.7c-4.4-2.6-9.2-4.3-13.9-5.1l19.8-27.8c-19.7-14.1-43.8-19.7-67.7-15.7
		c-23.9,4-44.9,17.1-58.9,36.8c-16.7,23.3-23.2,51.8-18.5,80c4.7,28.3,20.2,53,43.5,69.7c23,16.4,50.1,24.6,77.8,23.8
		c5.9-0.2,11.7-0.7,17.6-1.7c33.7-5.6,63.3-24.1,83.1-51.9C284.8,207.7,294.3,167,287.5,126.4z"/>
</g>
<g>
	<path class="st0" d="M385.9,142.7c-4.5-2.4-8-5.8-10.6-10.2c-2.6-4.3-3.8-9.2-3.8-14.6c0-5.4,1.3-10.3,3.9-14.6
		c2.6-4.3,6.1-7.7,10.6-10.2c4.5-2.4,9.5-3.7,15.1-3.7c4.5,0,8.7,0.8,12.4,2.4c3.7,1.6,6.9,3.9,9.5,6.9l-6.6,6.2
		c-4-4.3-8.9-6.5-14.8-6.5c-3.8,0-7.2,0.8-10.2,2.5c-3,1.7-5.3,4-7,6.9c-1.7,3-2.5,6.3-2.5,10c0,3.7,0.8,7.1,2.5,10
		c1.7,3,4,5.3,7,6.9c3,1.7,6.4,2.5,10.2,2.5c5.8,0,10.8-2.2,14.8-6.6l6.6,6.3c-2.6,3-5.8,5.3-9.5,6.9c-3.8,1.6-7.9,2.4-12.4,2.4
		C395.4,146.4,390.4,145.2,385.9,142.7z"/>
	<path class="st0" d="M437.8,143.4c-3.4-1.8-6.1-4.4-8-7.7c-1.9-3.3-2.9-7-2.9-11.2c0-4.2,1-7.9,2.9-11.1c1.9-3.3,4.6-5.8,8-7.7
		c3.4-1.8,7.3-2.8,11.5-2.8c4.3,0,8.2,0.9,11.6,2.8c3.4,1.8,6.1,4.4,8,7.7c1.9,3.3,2.9,7,2.9,11.1c0,4.2-1,7.9-2.9,11.2
		c-1.9,3.3-4.6,5.9-8,7.7c-3.4,1.8-7.3,2.8-11.6,2.8C445,146.1,441.2,145.2,437.8,143.4z M458.3,134.1c2.4-2.4,3.6-5.6,3.6-9.6
		c0-4-1.2-7.1-3.6-9.6c-2.4-2.4-5.4-3.6-9-3.6s-6.6,1.2-9,3.6c-2.3,2.4-3.5,5.6-3.5,9.6c0,4,1.2,7.1,3.5,9.6c2.3,2.4,5.3,3.6,9,3.6
		S455.9,136.5,458.3,134.1z"/>
	<path class="st0" d="M505.7,102.9v9.4c-0.8-0.2-1.6-0.2-2.3-0.2c-3.8,0-6.8,1.1-9,3.4c-2.2,2.2-3.2,5.5-3.2,9.7v20.5h-9.9v-42.2
		h9.4v6.2C493.5,105.1,498.6,102.9,505.7,102.9z"/>
	<path class="st0" d="M555,87v58.6h-9.5v-5.5c-1.6,2-3.6,3.5-6,4.5c-2.4,1-5,1.5-7.9,1.5c-4.1,0-7.7-0.9-10.9-2.7
		c-3.2-1.8-5.8-4.3-7.6-7.6c-1.8-3.3-2.8-7.1-2.8-11.3c0-4.3,0.9-8,2.8-11.3c1.8-3.3,4.4-5.8,7.6-7.6c3.2-1.8,6.9-2.7,10.9-2.7
		c2.8,0,5.3,0.5,7.7,1.4c2.3,0.9,4.3,2.4,5.9,4.3V87H555z M539.1,136.1c1.9-1.1,3.4-2.6,4.5-4.6c1.1-2,1.7-4.3,1.7-7
		c0-2.6-0.6-5-1.7-7c-1.1-2-2.6-3.5-4.5-4.6c-1.9-1.1-4-1.6-6.4-1.6c-2.4,0-4.5,0.5-6.4,1.6c-1.9,1.1-3.4,2.6-4.5,4.6
		c-1.1,2-1.7,4.3-1.7,7c0,2.6,0.6,5,1.7,7c1.1,2,2.6,3.5,4.5,4.6c1.9,1.1,4,1.6,6.4,1.6C535.1,137.7,537.2,137.2,539.1,136.1z"/>
	<path class="st0" d="M607.5,127.7h-33.1c0.6,3.1,2.1,5.6,4.5,7.4c2.4,1.8,5.5,2.7,9.1,2.7c4.6,0,8.5-1.5,11.5-4.6l5.3,6.1
		c-1.9,2.3-4.3,4-7.2,5.1c-2.9,1.2-6.2,1.7-9.8,1.7c-4.6,0-8.7-0.9-12.2-2.8c-3.5-1.8-6.3-4.4-8.2-7.7c-1.9-3.3-2.9-7-2.9-11.2
		c0-4.1,0.9-7.8,2.8-11.1c1.9-3.3,4.5-5.9,7.8-7.7c3.3-1.8,7.1-2.8,11.2-2.8c4.1,0,7.8,0.9,11,2.7c3.2,1.8,5.8,4.4,7.6,7.7
		c1.8,3.3,2.7,7.1,2.7,11.4C607.6,125.4,607.6,126.4,607.5,127.7z M578.3,113.6c-2.2,1.9-3.5,4.4-4,7.5h23.9
		c-0.4-3.1-1.7-5.5-3.9-7.4c-2.2-1.9-4.8-2.8-8.1-2.8C583.1,110.8,580.5,111.8,578.3,113.6z"/>
	<path class="st0" d="M641.5,102.9v9.4c-0.8-0.2-1.6-0.2-2.3-0.2c-3.8,0-6.8,1.1-9,3.4c-2.2,2.2-3.2,5.5-3.2,9.7v20.5h-9.9v-42.2
		h9.4v6.2C629.4,105.1,634.4,102.9,641.5,102.9z"/>
	<path class="st0" d="M650.4,94.7c-1.2-1.1-1.8-2.5-1.8-4.2c0-1.7,0.6-3.1,1.8-4.2c1.2-1.1,2.7-1.7,4.5-1.7c1.8,0,3.3,0.5,4.5,1.6
		c1.2,1.1,1.8,2.4,1.8,4.1c0,1.7-0.6,3.2-1.8,4.4c-1.2,1.2-2.7,1.8-4.5,1.8C653.1,96.4,651.6,95.9,650.4,94.7z M649.9,103.4h9.9
		v42.2h-9.9V103.4z"/>
	<path class="st0" d="M713.6,103.4v42.2h-9.4v-5.4c-1.6,1.9-3.6,3.4-5.9,4.4c-2.4,1-4.9,1.5-7.7,1.5c-5.6,0-10.1-1.6-13.3-4.7
		c-3.2-3.1-4.9-7.8-4.9-13.9v-24.1h9.9v22.8c0,3.8,0.9,6.6,2.6,8.5c1.7,1.9,4.1,2.8,7.3,2.8c3.5,0,6.3-1.1,8.4-3.3
		c2.1-2.2,3.1-5.3,3.1-9.4v-21.3H713.6z"/>
	<path class="st0" d="M729.6,144.8c-3.3-0.9-5.9-2-7.8-3.4l3.8-7.5c1.9,1.3,4.2,2.3,6.8,3c2.7,0.8,5.3,1.1,7.9,1.1
		c5.9,0,8.8-1.6,8.8-4.7c0-1.5-0.8-2.5-2.3-3.1c-1.5-0.6-3.9-1.1-7.2-1.7c-3.5-0.5-6.3-1.1-8.5-1.8c-2.2-0.7-4.1-1.9-5.7-3.6
		c-1.6-1.7-2.4-4.1-2.4-7.2c0-4,1.7-7.2,5-9.6c3.3-2.4,7.9-3.6,13.6-3.6c2.9,0,5.8,0.3,8.7,1c2.9,0.7,5.3,1.5,7.1,2.6l-3.8,7.5
		c-3.6-2.1-7.6-3.2-12.1-3.2c-2.9,0-5.1,0.4-6.6,1.3c-1.5,0.9-2.3,2-2.3,3.4c0,1.6,0.8,2.7,2.4,3.4c1.6,0.7,4.1,1.3,7.5,1.9
		c3.4,0.5,6.1,1.1,8.3,1.8c2.2,0.7,4,1.8,5.6,3.5c1.6,1.6,2.3,4,2.3,7c0,4-1.7,7.1-5.1,9.5c-3.4,2.4-8.1,3.6-14,3.6
		C736.2,146.1,732.8,145.7,729.6,144.8z"/>
	<path class="st0" d="M386.2,237.2c-4.4-2.4-7.8-5.8-10.4-10.1c-2.5-4.3-3.8-9.1-3.8-14.4c0-5.3,1.3-10.1,3.8-14.4
		c2.5-4.3,6-7.7,10.4-10.1c4.4-2.4,9.4-3.6,14.9-3.6c4.1,0,7.9,0.7,11.4,2.1c3.5,1.4,6.4,3.4,8.8,6l-3.7,3.7
		c-4.3-4.4-9.8-6.6-16.4-6.6c-4.4,0-8.3,1-11.9,3c-3.6,2-6.4,4.7-8.4,8.2c-2,3.5-3,7.4-3,11.7c0,4.3,1,8.2,3,11.7
		c2,3.5,4.8,6.2,8.4,8.2c3.6,2,7.6,3,11.9,3c6.6,0,12.1-2.2,16.4-6.6l3.7,3.7c-2.4,2.6-5.4,4.6-8.9,6c-3.5,1.4-7.3,2.1-11.4,2.1
		C395.5,240.9,390.6,239.7,386.2,237.2z"/>
	<path class="st0" d="M437,238.1c-3.2-1.8-5.7-4.3-7.6-7.5c-1.8-3.2-2.8-6.8-2.8-10.9c0-4.1,0.9-7.7,2.8-10.9
		c1.8-3.2,4.4-5.7,7.6-7.5c3.2-1.8,6.8-2.7,10.8-2.7c4,0,7.6,0.9,10.8,2.7c3.2,1.8,5.7,4.3,7.5,7.5c1.8,3.2,2.7,6.8,2.7,10.9
		c0,4.1-0.9,7.7-2.7,10.9c-1.8,3.2-4.3,5.7-7.5,7.5c-3.2,1.8-6.8,2.7-10.8,2.7C443.8,240.8,440.2,239.9,437,238.1z M455.7,233.8
		c2.3-1.3,4.2-3.3,5.5-5.7c1.3-2.5,2-5.3,2-8.5c0-3.2-0.7-6-2-8.5c-1.3-2.5-3.1-4.4-5.5-5.7c-2.3-1.3-5-2-7.9-2c-3,0-5.6,0.7-7.9,2
		c-2.3,1.3-4.2,3.3-5.5,5.7c-1.3,2.5-2,5.3-2,8.5c0,3.2,0.7,6,2,8.5c1.3,2.5,3.2,4.4,5.5,5.7c2.3,1.3,5,2,7.9,2
		C450.7,235.8,453.4,235.2,455.7,233.8z"/>
	<path class="st0" d="M480.4,181.8h5.6v58.6h-5.6V181.8z"/>
	<path class="st0" d="M501.6,181.8h5.6v58.6h-5.6V181.8z"/>
	<path class="st0" d="M559.1,221.4h-34.8c0.3,4.3,2,7.8,5,10.5c3,2.7,6.8,4,11.4,4c2.6,0,5-0.5,7.1-1.4c2.2-0.9,4-2.3,5.6-4.1
		l3.2,3.6c-1.8,2.2-4.1,3.9-6.9,5.1c-2.8,1.2-5.8,1.7-9.1,1.7c-4.3,0-8-0.9-11.3-2.7c-3.3-1.8-5.9-4.3-7.7-7.5
		c-1.8-3.2-2.8-6.8-2.8-10.9c0-4.1,0.9-7.7,2.6-10.9c1.8-3.2,4.2-5.7,7.3-7.5s6.5-2.7,10.4-2.7c3.8,0,7.3,0.9,10.4,2.7
		c3.1,1.8,5.5,4.3,7.2,7.5c1.7,3.2,2.6,6.8,2.6,10.9L559.1,221.4z M528.9,207.2c-2.7,2.6-4.3,5.9-4.6,10h29.5
		c-0.4-4.1-1.9-7.4-4.6-10c-2.7-2.6-6.1-3.8-10.2-3.8C535,203.4,531.6,204.6,528.9,207.2z"/>
	<path class="st0" d="M609.1,198.8v36.5c0,7.1-1.7,12.3-5.2,15.7c-3.5,3.4-8.7,5.1-15.6,5.1c-3.8,0-7.5-0.6-10.9-1.7
		c-3.5-1.1-6.3-2.7-8.4-4.7l2.8-4.3c2,1.8,4.4,3.2,7.3,4.2c2.9,1,5.9,1.5,9,1.5c5.3,0,9.1-1.2,11.6-3.7c2.5-2.4,3.7-6.3,3.7-11.4
		v-5.3c-1.7,2.6-4,4.6-6.8,6c-2.8,1.4-5.9,2.1-9.4,2.1c-3.9,0-7.4-0.9-10.6-2.6c-3.2-1.7-5.7-4.1-7.5-7.2c-1.8-3.1-2.7-6.6-2.7-10.5
		c0-3.9,0.9-7.4,2.7-10.4c1.8-3.1,4.3-5.4,7.5-7.1c3.2-1.7,6.7-2.5,10.7-2.5c3.5,0,6.7,0.7,9.6,2.1c2.8,1.4,5.1,3.5,6.9,6.2v-8
		H609.1z M595.9,231.9c2.4-1.3,4.3-3.1,5.6-5.4c1.3-2.3,2-5,2-7.9c0-2.9-0.7-5.6-2-7.9c-1.3-2.3-3.2-4.1-5.6-5.4
		c-2.4-1.3-5.1-1.9-8.2-1.9c-3,0-5.7,0.6-8.1,1.9c-2.4,1.3-4.3,3.1-5.6,5.4c-1.3,2.3-2,5-2,7.9c0,3,0.7,5.6,2,7.9
		c1.3,2.3,3.2,4.1,5.6,5.4c2.4,1.3,5.1,1.9,8.1,1.9S593.5,233.2,595.9,231.9z"/>
	<path class="st0" d="M661,221.4h-34.8c0.3,4.3,2,7.8,5,10.5c3,2.7,6.8,4,11.4,4c2.6,0,5-0.5,7.1-1.4c2.2-0.9,4-2.3,5.6-4.1l3.2,3.6
		c-1.8,2.2-4.1,3.9-6.9,5.1c-2.8,1.2-5.8,1.7-9.1,1.7c-4.3,0-8-0.9-11.3-2.7c-3.3-1.8-5.9-4.3-7.7-7.5c-1.8-3.2-2.8-6.8-2.8-10.9
		c0-4.1,0.9-7.7,2.6-10.9c1.8-3.2,4.2-5.7,7.3-7.5s6.5-2.7,10.4-2.7c3.8,0,7.3,0.9,10.4,2.7c3.1,1.8,5.5,4.3,7.2,7.5
		c1.7,3.2,2.6,6.8,2.6,10.9L661,221.4z M630.8,207.2c-2.7,2.6-4.3,5.9-4.6,10h29.5c-0.4-4.1-1.9-7.4-4.6-10
		c-2.7-2.6-6.1-3.8-10.2-3.8C636.9,203.4,633.5,204.6,630.8,207.2z"/>
</g>
</svg>
