<?xml version="1.0" encoding="utf-8"?>
<!-- Generator: Adobe Illustrator 27.8.1, SVG Export Plug-In . SVG Version: 6.00 Build 0)  -->
<svg version="1.1" id="Layer_1" xmlns="http://www.w3.org/2000/svg" xmlns:xlink="http://www.w3.org/1999/xlink" x="0px" y="0px"
	 viewBox="0 0 328.9 328.9" style="enable-background:new 0 0 758.7 328.9;" xml:space="preserve">
<style type="text/css">
	.st0{fill:#CD0E44;}
	.st1{fill:#FFFFFF;}
</style>
<g>
	<path class="st0" d="M328.9,19.5v289.8c0,10.8-8.7,19.5-19.5,19.5H19.5C8.7,328.9,0,320.1,0,309.3L0,19.5C0,8.7,8.7,0,19.5,0
		l289.8,0C320.1,0,328.9,8.7,328.9,19.5z"/>
	<path class="st1" d="M287.5,126.4C281.3,89,261.9,56,232.7,32.3l-28.6,40.2c18.5,15.9,30.8,37.6,34.9,62
		c4.6,27.6-1.8,55.3-18.1,78.1c-12.2,17.1-30.4,28.5-51.2,32c-20.8,3.5-41.7-1.4-58.8-13.6c-12.6-9-21-22.4-23.6-37.8
		c-2.6-15.3,1-30.7,10-43.4c6.5-9,16.1-15,27-16.9c4.4-0.7,8.8-0.8,13-0.1c-5.6,3.3-10.5,8-14,13.9c-11.3,18.9-5.2,43.4,13.7,54.7
		c18.9,11.3,43.4,5.2,54.7-13.7c11.3-18.9,5.2-43.4-13.7-54.7c-4.4-2.6-9.2-4.3-13.9-5.1l19.8-27.8c-19.7-14.1-43.8-19.7-67.7-15.7
		c-23.9,4-44.9,17.1-58.9,36.8c-16.7,23.3-23.2,51.8-18.5,80c4.7,28.3,20.2,53,43.5,69.7c23,16.4,50.1,24.6,77.8,23.8
		c5.9-0.2,11.7-0.7,17.6-1.7c33.7-5.6,63.3-24.1,83.1-51.9C284.8,207.7,294.3,167,287.5,126.4z"/>
</g>
</svg>
